<svg width="571" height="360" viewBox="0 0 571 360" fill="none" xmlns="http://www.w3.org/2000/svg">
<path d="M0 180V360H285.5H571V180V-5.36442e-06H285.5H0V180ZM290.9 127.4C294.9 128.3 299.2 129.3 300.4 129.7C302.4 130.3 302.4 130.4 300 131.2C298.2 131.8 298.6 131.9 301.8 131.6C305.5 131.2 308 132.1 319.8 138C327.3 141.7 336 146.2 339 147.8L344.4 150.9L341.5 151.9C339.8 152.5 337.8 153.4 337 153.8C336 154.4 333.4 153.3 328.6 150.2C307.2 136.5 290.6 130.2 274.1 129.3C265.6 128.8 234.6 130.3 228 131.5C227.2 131.6 224.3 132 221.5 132.4C211.4 133.8 178.3 141.8 170 144.8C169.2 145.1 173.5 145.7 179.5 146.2C185.6 146.6 193.4 147.5 196.8 148.2C202.4 149.4 199.8 149.5 172.8 149.5C153.9 149.5 138.5 150 132 150.8C126.2 151.6 116.9 152.7 111.3 153.3C105.7 154 100.8 154.8 100.4 155.2C100 155.6 99.4 157.7 99 159.7C98.2 163.5 98.2 163.5 98.1 160.3C98.1 158.6 97.6 156 97 154.6C96.1 152.1 96.2 152 99.3 152C101 151.9 105.2 151.3 108.5 150.5C111.8 149.7 122.5 148.7 132.5 148.4C153.6 147.6 159.1 146.1 141.5 145.9C128.3 145.8 128.2 145.9 148.5 141.5C185.5 133.5 216.5 127.9 234.5 126.1C247.4 124.7 281.9 125.6 290.9 127.4ZM225.5 137C224.6 138.6 223.7 140 223.4 140C223.2 140 223.6 138.6 224.5 137C225.4 135.3 226.3 134 226.6 134C226.8 134 226.4 135.3 225.5 137ZM220.8 145.5C220.2 146.9 219.5 147.8 219.3 147.6C218.8 147.1 220.8 143 221.5 143C221.8 143 221.4 144.1 220.8 145.5ZM309.4 149C312.8 152 312.8 152.1 311.4 155.5C310 158.8 310.1 159 312.2 159.5C318.3 160.8 380.4 160.4 376 159.1C374.6 158.7 366.2 158 357.3 157.7C348.4 157.3 340.1 156.6 338.8 156.1C336.6 155.3 336.7 155.2 340 154.5C341.9 154.1 344.7 153.1 346.2 152.4C348.6 151.1 352.4 151.3 375.7 153.5C412.4 156.9 426 159.2 442.5 164.7C451.4 167.6 468.1 175.3 463.8 174.5C460.3 173.8 460.2 175.3 463.6 176.8C465 177.5 465.8 178.5 465.5 179C465.2 179.5 465.5 179.7 466.3 179.4C467.1 179.1 468.1 179.3 468.5 179.9C468.8 180.5 468.6 181 468.1 181C465.9 181 467.1 182.6 470.6 184.5C473.6 186.1 473.9 186.5 472.4 187C470.8 187.6 470.9 187.9 473.2 189.4C479.1 193.3 476.9 193.8 467.2 190.8C457.5 187.8 457.5 187.7 448.4 178.6C438.2 168.4 431.3 163.8 422.5 161.5C415.2 159.6 410.5 159.6 392 161.5C361.3 164.7 303 165.6 307.2 162.9C308.2 162.2 308.3 161.8 307.2 161.2C306.2 160.5 306.3 159.6 307.5 156.7C309.5 151.9 309.5 152 306 152C302.3 152 297 149.9 295.1 147.7C293.9 146.1 294.3 146 299.8 146C305.2 146 306.3 146.4 309.4 149ZM192 152.5C198.9 153.3 208.3 154 213 154.1C217.7 154.2 222.5 154.6 223.6 155.1C225.5 155.8 225.7 155.6 225.3 153.7C224.9 151.7 225 151.7 226 153.2C226.9 154.6 228.5 155 233.8 155C242.9 155 292.4 158 298 158.8L302.5 159.5L296.5 161.7C290.9 163.7 289.5 163.8 273.8 163C264.7 162.5 256.3 161.7 255.3 161.2C254.3 160.6 250.3 160.1 246.5 160C237.9 159.8 236.5 160.1 241 161C242.9 161.4 238.6 161.5 231.3 161.3C224 161.1 217.5 160.8 216.8 160.6C216.1 160.4 211.7 159.8 207 159.2C202.3 158.6 192.9 157 186 155.5C175.8 153.2 170.9 152.7 159.7 152.7C152.2 152.7 146.1 152.5 146.4 152.3C146.6 152.1 151.2 151.5 156.6 151.1C167.2 150.2 172.4 150.4 192 152.5ZM175.3 175.9C185.9 180.4 192 189.9 192 201.7C192 212.6 185.6 223.4 177.1 227C175.4 227.7 174.2 228.5 174.4 228.9C174.6 229.2 225.4 229.4 287.2 229.2L399.5 228.9L395.7 226.6C383.8 219.3 378.7 206.6 382.4 193.8C384.2 187.5 392.2 177.5 394.7 178.4C395.5 178.7 395.9 178.6 395.6 178.1C394.5 176.4 403 174 409.8 174C418.4 174 425.1 177 430.7 183.4C438.7 192.5 439.8 205.8 433.5 216.6C430.9 221.1 425 226.3 421.3 227.4C415.1 229.4 420.8 230 445.8 230.2L472.5 230.4L447.5 231C415.8 231.7 158.4 231.7 127 231L103.5 230.4L129.3 230.2C152.6 230 159.3 229.3 152.7 227.6C149.1 226.7 141.2 219.3 138.8 214.7C136.3 209.7 135.4 200 136.9 194.3C140.1 182.4 151.3 174 164 174C168.5 174 172.4 174.7 175.3 175.9ZM376.5 176C376.2 176.5 373.1 176.9 369.7 176.8L363.5 176.7L370 176C373.6 175.6 376.6 175.3 376.8 175.2C377 175.1 376.8 175.4 376.5 176ZM371.5 182C371.2 182.5 369 182.9 366.7 182.9L362.5 182.7L366.5 182C368.7 181.6 370.9 181.2 371.3 181.1C371.8 181.1 371.8 181.4 371.5 182ZM368 188.5C367.2 189.5 365.2 190 362.1 189.9L357.5 189.7L362.2 189.1C364.8 188.7 367.2 188.1 367.6 187.7C369 186.4 369.2 187 368 188.5ZM224.3 207.1C226.5 205.9 234.5 206.2 280.2 208.9C309.5 210.7 333.8 212.2 334.3 212.3C336.1 212.8 227.2 211.9 224.3 211.4C221.2 210.9 219 208.6 219 205.9C219 205.2 219.6 205.5 220.4 206.5C221.6 208.2 222.1 208.3 224.3 207.1ZM466.5 213C470.1 211.5 473.6 212 477 214.5L480.4 217H468.6C456.8 217 456.8 217 457.4 214.7C457.7 213.5 458 211.1 458 209.5L458.1 206.5L461.3 210.1C463.8 213.1 464.9 213.6 466.5 213Z" fill="black"/>
<path d="M449 172.4C449 173.2 459.3 180 459.8 179.5C460 179.3 459.3 177.9 458.1 176.4C457 174.9 456 174.2 456 174.8C456 175.4 454.5 175 452.5 173.9C450.6 172.7 449 172.1 449 172.4Z" fill="white"/>
<path d="M157.7 182.4C148.1 185.9 143.4 193.4 144.2 204.1C144.5 208.8 145.2 210.7 147.7 213.7C152.1 219.3 157.4 222 163.9 222C174.7 222 183 214.9 184.6 204.3C186 195.1 178.8 184.4 169.7 182.1C164 180.7 162.4 180.8 157.7 182.4Z" fill="black"/>
<path d="M402.6 182.5C394.8 185.3 389 193.5 389 201.7C389.1 213.3 398.1 222.3 409.6 222.2C432.5 222 437.7 190.2 416.1 182.5C410.8 180.7 407.7 180.7 402.6 182.5Z" fill="black"/>
</svg>
